# xmcd CD database file
#
# Track frame offsets:
#	150
#	14376
#	28463
#	43858
#	58874
#	72831
#	86160
#	97199
#	113631
#	126268
#	142632
#	154429
#	170175
#
# Disc length: 2499 seconds
#
# Revision: 0
# Processed by: cddbd v1.5.2PL0 Copyright (c) Steve Scherf et al.
# Submitted via: CDex 1.51
#
DISCID=c009c10d
DTITLE=Jim Hendrix - Tennessee Flat Top Box
DYEAR=1900
DGENRE=Country
TTITLE0=Folsom Prison Blues
TTITLE1=Give My Love To Rose
TTITLE2=Tennessee Flat Top Box
TTITLE3=Ring of Fire
TTITLE4=Peace In The Valley
TTITLE5=I Still Miss Someone
TTITLE6=I Walk The Line
TTITLE7=Jackson
TTITLE8=Wildwood Flower
TTITLE9=Ghost Riders In The Sky
TTITLE10=Johnny Yuma
TTITLE11=Understrand Your Man
TTITLE12=Hurt
EXTD=
EXTT0=
EXTT1=
EXTT2=
EXTT3=
EXTT4=
EXTT5=
EXTT6=
EXTT7=
EXTT8=
EXTT9=
EXTT10=
EXTT11=
EXTT12=
PLAYORDER=
